<svg width="15" height="15" viewBox="0 0 15 15" fill="none" xmlns="http://www.w3.org/2000/svg">
<path opacity="0.25" d="M13.9464 6.83186C15.0171 6.02197 14.4444 4.3153 13.1018 4.3153H10.6727C10.0587 4.3153 9.51645 3.91533 9.33512 3.32881L8.61098 0.9865C8.20433 -0.328818 6.34254 -0.328818 5.9359 0.986499L5.21175 3.32881C5.03042 3.91533 4.48813 4.3153 3.87421 4.3153H1.40305C0.0648563 4.3153 -0.510644 6.01286 0.551656 6.82666L2.66813 8.44805C3.13229 8.80362 3.32658 9.41021 3.1554 9.96929L2.3864 12.4809C1.9876 13.7833 3.49511 14.8305 4.57645 14.0021L6.42205 12.5882C6.92441 12.2034 7.62247 12.2034 8.12483 12.5882L9.95413 13.9896C11.037 14.8192 12.546 13.768 12.1431 12.4647L11.3634 9.94283C11.1894 9.37988 11.3864 8.76821 11.8564 8.41275L13.9464 6.83186Z" fill="black"/>
</svg>
